# xmcd CD database file
#
# Track frame offsets:
#	150
#	19428
#	44036
#	65375
#	108100
#	122301
#	142421
#	173776
#	190424
#	203858
#
# Disc length: 2911 seconds
#
# Revision: 0
# Processed by: cddbd v1.5.1PL2 Copyright (c) Steve Scherf et al.
# Submitted via: CDex 1.51
#
DISCID=950b5d0a
DTITLE=Eddie Condon - Jam Session Coast to Coast
DYEAR=1953
DGENRE=Jazz
TTITLE0=Beale Street Blues
TTITLE1=Don't Worry Bount me
TTITLE2=Riverboat Shuffle
TTITLE3=Jam Session Blues
TTITLE4=Black and Blue
TTITLE5=I ain't gonna give Nobody None O'this Jelly Roll
TTITLE6=Ja Da
TTITLE7=The Sheik of Araby
TTITLE8=Squeeze me
TTITLE9=South Rampart Street Parade
EXTD=YEAR: 1953
EXTT0=
EXTT1=
EXTT2=
EXTT3=
EXTT4=
EXTT5=
EXTT6=
EXTT7=
EXTT8=
EXTT9=
PLAYORDER=
